<svg xmlns="http://www.w3.org/2000/svg" xmlns:xlink="http://www.w3.org/1999/xlink" width="238" zoomAndPan="magnify" viewBox="0 0 238.64 238.64" height="238" preserveAspectRatio="xMidYMid meet" version="1.0"><defs><clipPath id="b1e12a5a96"><path d="M 0.507812 0.734375 L 238.132812 0.734375 L 238.132812 238.363281 L 0.507812 238.363281 Z M 0.507812 0.734375 " clip-rule="nonzero"/></clipPath><clipPath id="3c7268cba6"><rect x="0" width="240" y="0" height="240"/></clipPath></defs><g clip-path="url(#3c7268cba6)"><g clip-path="url(#b1e12a5a96)"><path fill="#fff80c" d="M 238.132812 119.550781 C 238.132812 185.167969 184.9375 238.363281 119.320312 238.363281 C 53.703125 238.363281 0.507812 185.167969 0.507812 119.550781 C 0.507812 53.929688 53.703125 0.734375 119.320312 0.734375 C 184.9375 0.734375 238.132812 53.929688 238.132812 119.550781 " fill-opacity="1" fill-rule="nonzero"/></g><path fill="#ffda03" d="M 236.066406 120.066406 C 236.066406 184.257812 184.027344 236.292969 119.835938 236.292969 C 55.644531 236.292969 3.605469 184.257812 3.605469 120.066406 C 3.605469 55.871094 55.644531 3.832031 119.835938 3.832031 C 184.027344 3.832031 236.066406 55.871094 236.066406 120.066406 " fill-opacity="1" fill-rule="nonzero"/><path fill="#ed9e00" d="M 211.046875 118.710938 C 211.046875 169.929688 169.523438 211.453125 118.304688 211.453125 C 67.085938 211.453125 25.566406 169.929688 25.566406 118.710938 C 25.566406 67.492188 67.085938 25.96875 118.304688 25.96875 C 169.523438 25.96875 211.046875 67.492188 211.046875 118.710938 " fill-opacity="1" fill-rule="nonzero"/><path fill="#f4b400" d="M 209.210938 120.675781 C 209.210938 169.699219 169.46875 209.441406 120.445312 209.441406 C 71.421875 209.441406 31.679688 169.699219 31.679688 120.675781 C 31.679688 71.648438 71.421875 31.90625 120.445312 31.90625 C 169.46875 31.90625 209.210938 71.648438 209.210938 120.675781 " fill-opacity="1" fill-rule="nonzero"/><path fill="#ed9e00" d="M 125.132812 60.386719 L 141.339844 91.265625 C 141.9375 92.40625 143.027344 93.199219 144.296875 93.417969 L 178.671875 99.285156 C 181.953125 99.84375 183.253906 103.855469 180.933594 106.234375 L 156.570312 131.1875 C 155.667969 132.109375 155.253906 133.394531 155.4375 134.667969 L 160.480469 169.175781 C 160.960938 172.464844 157.550781 174.945312 154.570312 173.46875 L 123.308594 158.007812 C 122.15625 157.4375 120.804688 157.4375 119.652344 158.007812 L 88.390625 173.46875 C 85.410156 174.945312 81.996094 172.464844 82.480469 169.175781 L 87.523438 134.667969 C 87.707031 133.394531 87.289062 132.109375 86.390625 131.1875 L 62.027344 106.234375 C 59.707031 103.855469 61.007812 99.84375 64.285156 99.285156 L 98.664062 93.417969 C 99.929688 93.199219 101.027344 92.40625 101.625 91.265625 L 117.828125 60.386719 C 119.371094 57.4375 123.589844 57.4375 125.132812 60.386719 " fill-opacity="1" fill-rule="nonzero"/><path fill="#fff80c" d="M 120.8125 56.066406 L 137.015625 86.945312 C 137.613281 88.085938 138.710938 88.878906 139.976562 89.097656 L 174.351562 94.964844 C 177.632812 95.523438 178.933594 99.535156 176.613281 101.914062 L 152.25 126.867188 C 151.351562 127.785156 150.933594 129.074219 151.117188 130.347656 L 156.160156 164.855469 C 156.644531 168.144531 153.230469 170.621094 150.25 169.148438 L 118.988281 153.6875 C 117.835938 153.121094 116.484375 153.121094 115.332031 153.6875 L 84.070312 169.148438 C 81.089844 170.621094 77.675781 168.144531 78.160156 164.855469 L 83.199219 130.347656 C 83.386719 129.074219 82.96875 127.785156 82.070312 126.867188 L 57.707031 101.914062 C 55.386719 99.535156 56.6875 95.523438 59.96875 94.964844 L 94.34375 89.097656 C 95.609375 88.878906 96.703125 88.085938 97.300781 86.945312 L 113.503906 56.066406 C 115.050781 53.117188 119.269531 53.117188 120.8125 56.066406 " fill-opacity="1" fill-rule="nonzero"/><path fill="#ffda03" d="M 122.972656 58.222656 L 139.175781 89.105469 C 139.773438 90.246094 140.871094 91.039062 142.136719 91.257812 L 176.515625 97.125 C 179.792969 97.683594 181.097656 101.691406 178.773438 104.074219 L 154.410156 129.027344 C 153.511719 129.945312 153.09375 131.234375 153.277344 132.503906 L 158.320312 167.011719 C 158.800781 170.304688 155.390625 172.78125 152.410156 171.308594 L 121.148438 155.851562 C 119.996094 155.277344 118.644531 155.277344 117.492188 155.851562 L 86.230469 171.308594 C 83.25 172.78125 79.839844 170.304688 80.320312 167.011719 L 85.363281 132.503906 C 85.546875 131.234375 85.128906 129.945312 84.230469 129.027344 L 59.867188 104.074219 C 57.542969 101.691406 58.847656 97.683594 62.125 97.125 L 96.503906 91.257812 C 97.773438 91.039062 98.867188 90.246094 99.464844 89.105469 L 115.667969 58.222656 C 117.210938 55.28125 121.429688 55.28125 122.972656 58.222656 " fill-opacity="1" fill-rule="nonzero"/></g></svg>
